# xmcd
#
# Track frame offsets:
#	150
#	14042
#	24608
#	39330
#	54708
#	66317
#	77286
#	90280
#	107623
#	125193
#	136660
#	148822
#	159067
#	168647
#
# Disc length: 2479 seconds
#
# Revision: 0
# Processed by: cddbd v1.5.2PL0 Copyright (c) Steve Scherf et al.
# Submitted via: EasyCDDAExtractor 16.0.1.1
#
DISCID=b409ad0e
DTITLE=Anna-Lena Brundin - Se Ut Som Du Gör
DYEAR=1998
DGENRE=Country
TTITLE0=Min Kväll I Kväll (Girl's Night Out)
TTITLE1=Du Är Inte Kvinna Nog Att Ta Min Man (You Ain't Woman Enough)
TTITLE2=Hem and Skola Vvb (Harper Valley Pta)
TTITLE3=Det Har Alltid Varit Du (Always On My Mind)
TTITLE4=Efter Midnatt (Walkin' After Midnight)
TTITLE5=Varför Komma Här Och Se Ut Som Du Gör? (Why'd You Come In Here Lookin'
TTITLE5=Like That?)
TTITLE6=Jag Bäddar Din Säng (I'll Make Your Bed)
TTITLE7=Vi Ger Dem Nånting Att Snacka Om (Something To Talk About)
TTITLE8=När Du Än Vill (Any Old Time)
TTITLE9=Ring Av Lågor (Ring Of Fire)
TTITLE10=Jag Behöver Dig
TTITLE11=Jag Brukade Få Blommor (On The Inside)
TTITLE12=Ett Ruttet Lingon (Two Whoops And A Holler)
TTITLE13=Dags För Mig Att Gå (Time For Me To Fly)
EXTD=
EXTT0=
EXTT1=
EXTT2=
EXTT3=
EXTT4=
EXTT5=
EXTT6=
EXTT7=
EXTT8=
EXTT9=
EXTT10=
EXTT11=
EXTT12=
EXTT13=
PLAYORDER=
